<?xml version="1.0" encoding="utf-8"?>
<!-- Generator: Adobe Illustrator 19.0.1, SVG Export Plug-In . SVG Version: 6.00 Build 0)  -->
<svg version="1.1" xmlns="http://www.w3.org/2000/svg" xmlns:xlink="http://www.w3.org/1999/xlink" x="0px" y="0px"
	 viewBox="0 0 134.6 136.1" style="enable-background:new 0 0 134.6 136.1;" xml:space="preserve">
<style type="text/css">
	.st0{fill-rule:evenodd;clip-rule:evenodd;fill:#C5CCDC;}
	.st1{fill:#2A3D46;}
	.st2{fill-rule:evenodd;clip-rule:evenodd;fill:#2A3D46;}
	.st3{opacity:0.9608;}
	.st4{fill-rule:evenodd;clip-rule:evenodd;fill:#F3F5F6;}
</style>
<g id="Layer_2">
	<ellipse class="st0" cx="67.5" cy="69.9" rx="61.2" ry="62.9"/>
</g>
<g id="HambaLogo2_1_">
	<g id="Color_Fill_1">
		<g>
			<path class="st1" d="M90.7,50.4c1.7-1.9,0.1-6.2-2.7-6.6c-2.8-0.4-4.9,5-4.9,5C85.3,53.2,89,52.3,90.7,50.4z M78.8,46
				c2.1,1.1,3.3,0.1,4.2-0.8c0.9-0.9,1.2-3.3-0.2-4.6c-1.3-1.3-3.1-1-4.7,0.7C76.5,42.9,76.7,44.9,78.8,46z M99.2,51.4
				c-2.1-2-5.9,0.1-7.1,2c-1.2,2-1.2,4.4,0,5.5c1.2,1.2,4.3,1.8,6.1,0.3S101.3,53.3,99.2,51.4z M66.7,43.9
				C52.3,49.5,36.9,66.2,29,78.5c-5.3,8.3-1.2,19.1,5.3,22.5c13.7,7.2,22.6-11.8,28.6-16.5c8.3-6.5,9-6.6,14-5
				c7,1.8,15.1,1.8,17.5-3c2.2-4.4,0-9.1-1.7-12C89,58.3,75.6,42.3,66.7,43.9z M106.5,57.3c-2.8-1.4-8.4,5.4-8.6,5.8
				c-0.2,0.4-1.2,6.4,0.1,7.8s5.1,2,8.6-1.6S109.3,58.7,106.5,57.3z M75,40.6c0.8-1.1,0.5-3.2-0.4-3.9c-0.8-0.6-2.3-0.5-3.7,1.2
				c-1.3,1.7,0.5,3.5,0.5,3.5S74.1,41.8,75,40.6z"/>
		</g>
	</g>
	<g id="Color_Fill_2_copy">
		<g>
			<path class="st2" d="M71.5,61.5c-10.9-0.9-15.2,7.7-15.2,7.7s0.9-29.9,0.2-30.8c-0.4-0.5-1.9-0.6-3.4-0.5c-1.4,0-3,0-3.4,0.7
				c-0.5,0.9,0.1,60.4,0.1,60.4l6.7-1.3c0,0,0.3-13.6,0.2-12.5c1-12.3,7.5-14.1,13.7-13.8c8.2,0.4,2.4,17.4,2.9,18.7
				s5.7,4.8,6.2,3.1C79.4,93,84.1,62.6,71.5,61.5z"/>
		</g>
	</g>
	<g id="Color_Fill_2" class="st3">
		<g>
			<path class="st4" d="M71.7,62.3c-11.3-1-16.2,9.5-16.2,9.5l0.5-33h-5.4V98l5.2-1.2c0,0,0.3-11.9,0.2-11.7
				c1-12.3,7.9-15.1,14.2-14.8c9,0.5,3.8,19.7,3.8,19.7s4.3,3.9,4.7,2.2C79.1,90.5,83,63.2,71.7,62.3z"/>
		</g>
	</g>
</g>
</svg>
